<mxfile host="app.diagrams.net" modified="2022-03-25T17:06:58.393Z" agent="5.0 (Macintosh; Intel Mac OS X 10_15_7) AppleWebKit/537.36 (KHTML, like Gecko) Chrome/99.0.4844.83 Safari/537.36" etag="iA3C3sAbUSUEtDm77WiR" version="17.2.3" type="github">
  <diagram id="AcvTXsJMlHQMMXtZheGj" name="Page-1">
    <mxGraphModel dx="2866" dy="1017" grid="1" gridSize="10" guides="1" tooltips="1" connect="1" arrows="1" fold="1" page="0" pageScale="1" pageWidth="850" pageHeight="1100" math="0" shadow="0">
      <root>
        <mxCell id="0" />
        <mxCell id="1" parent="0" />
        <mxCell id="Ek05YXl8exkxRYIan2Jz-1" value="&lt;span style=&quot;font-size: 24px&quot;&gt;&lt;font color=&quot;#ff0808&quot;&gt;SKETCH&lt;/font&gt;&lt;br&gt;&lt;/span&gt;" style="rounded=0;whiteSpace=wrap;html=1;" vertex="1" parent="1">
          <mxGeometry x="240" y="470" width="190" height="120" as="geometry" />
        </mxCell>
        <mxCell id="Ek05YXl8exkxRYIan2Jz-2" value="BOARD" style="rounded=0;whiteSpace=wrap;html=1;fontSize=24;fontColor=#FF0808;" vertex="1" parent="1">
          <mxGeometry x="-470" y="50" width="120" height="60" as="geometry" />
        </mxCell>
        <mxCell id="Ek05YXl8exkxRYIan2Jz-3" value="&lt;font size=&quot;3&quot;&gt;COMPONENT&lt;/font&gt;" style="rounded=0;whiteSpace=wrap;html=1;fontSize=24;fontColor=#FF0808;" vertex="1" parent="1">
          <mxGeometry x="-290" y="230" width="170" height="70" as="geometry" />
        </mxCell>
        <mxCell id="Ek05YXl8exkxRYIan2Jz-4" value="INSETS" style="rounded=0;whiteSpace=wrap;html=1;fontSize=12;fontColor=#FF0808;" vertex="1" parent="1">
          <mxGeometry x="-70" y="340" width="120" height="60" as="geometry" />
        </mxCell>
      </root>
    </mxGraphModel>
  </diagram>
</mxfile>
